<?xml version="1.0" encoding="utf-8"?>
<!-- Generator: Adobe Illustrator 22.0.1, SVG Export Plug-In . SVG Version: 6.00 Build 0)  -->
<svg version="1.1" id="圖層_1" xmlns="http://www.w3.org/2000/svg" xmlns:xlink="http://www.w3.org/1999/xlink" x="0px" y="0px"
	 viewBox="0 0 60 60" enable-background="new 0 0 60 60" xml:space="preserve">
<path fill="#1877F2" d="M56.5,60h-53C1.6,60,0,58.4,0,56.5v-53C0,1.6,1.6,0,3.5,0h53C58.4,0,60,1.6,60,3.5v53
	C60,58.4,58.4,60,56.5,60z"/>
<path fill="#FFFFFF" d="M40.6,24.2c1.1-1,2.8-0.9,3-0.9h7.2L51,12.9l-1.1-0.3C49.1,12.4,47,12,42.3,12c-8.4,0-14,5.9-14,14.6V29
	h-8.5v11.3h8.5V60h11.3V40.3h8.9L50,29H39.5v-1.7C39.5,25.9,39.9,24.8,40.6,24.2"/>
</svg>
