<?xml version="1.0" encoding="utf-8"?>
<!-- Generator: Adobe Illustrator 22.0.1, SVG Export Plug-In . SVG Version: 6.00 Build 0)  -->
<svg version="1.1" id="圖層_1" xmlns="http://www.w3.org/2000/svg" xmlns:xlink="http://www.w3.org/1999/xlink" x="0px" y="0px"
	 viewBox="0 0 60 60" enable-background="new 0 0 60 60" xml:space="preserve">
<path fill="#07B53B" d="M56.5,60h-53C1.6,60,0,58.4,0,56.5v-53C0,1.6,1.6,0,3.5,0h53C58.4,0,60,1.6,60,3.5v53
	C60,58.4,58.4,60,56.5,60z"/>
<title>line</title>
<path fill="#FFFFFF" d="M29.9,11C41.1,11,50,18.2,50,27.2c0,4.4-2.2,8.2-5.6,11.3c-5.5,5.4-15,10.9-16,10.5
	c-1.6-0.6,1.2-4.2,0.1-5.7c-0.2-0.2-0.8-0.2-2-0.4C16.9,41.7,10,35.3,10,27.2C10,18.1,18.9,11,29.9,11L29.9,11z M18.5,32.6h3.4
	c0.6,0,0.9-0.5,0.9-1.1c0-0.4-0.3-0.9-1.1-0.9H19c-0.2,0-0.2-0.2-0.2-1.1v-5.9c0-0.5-0.4-1.1-1-1.1s-1,0.5-1,1.1v7.1
	C16.8,32.4,17.6,32.6,18.5,32.6z M26.2,31.8v-8.1c0-0.5-0.4-1.1-1.1-1.1c-0.5,0-1,0.5-1,1.1v8.1c0,0.5,0.4,0.9,1.1,0.9
	C25.7,32.7,26.2,32.3,26.2,31.8z M35.8,30.7v-7.1c0-0.5-0.4-0.9-1.1-0.9c-0.5,0-1,0.3-1,0.9v5.1L30.3,24c-0.5-0.8-1.1-1.3-1.8-1.3
	c-0.9,0-0.9,0.7-0.9,1.7v7.5c0,0.5,0.4,0.9,1,0.9c0.5,0,1-0.4,1-0.9v-5.3l3.4,4.7c0.8,1,0.9,1.5,1.9,1.5
	C35.6,32.7,35.8,32.1,35.8,30.7L35.8,30.7z M42.3,26.6h-3v-1.7c0-0.2,0.1-0.4,0.4-0.4h2.6c0.6,0,1.1-0.4,1.1-1c0-0.8-0.6-1-1.1-1
	h-3.4c-1.1,0-1.6,0.7-1.6,1.6v6.6c0,1.2,0.5,1.8,1.6,1.8h3.5c0.8,0,1.1-0.5,1.1-1.1c0-0.8-0.6-1-1.1-1h-2.6c-0.2,0-0.4-0.2-0.4-0.4
	v-1.6h3.1c0.8,0,0.9-0.6,0.9-1C43.3,27,42.9,26.6,42.3,26.6z"/>
</svg>
