<?xml version="1.0" encoding="utf-8"?>
<!-- Generator: Adobe Illustrator 22.0.1, SVG Export Plug-In . SVG Version: 6.00 Build 0)  -->
<svg version="1.1" id="圖層_1" xmlns="http://www.w3.org/2000/svg" xmlns:xlink="http://www.w3.org/1999/xlink" x="0px" y="0px"
	 viewBox="0 0 90 90" enable-background="new 0 0 90 90" xml:space="preserve">
<rect x="80.7" y="8.4" fill="#B58436" width="6" height="6"/>
<rect x="68.7" y="36.4" fill="#B58436" width="4" height="4"/>
<polygon fill="#B58436" points="46.7,30.4 41.3,30.4 31,69.4 20.6,30.4 3.3,30.4 3.3,87.6 14.1,87.6 14.1,42.6 25.4,87.6 36.5,87.6 
	47.9,42.6 47.9,87.6 58.7,87.6 58.7,42.4 46.7,42.4 "/>
<rect x="48.7" y="28.4" fill="#B58436" width="12" height="12"/>
<rect x="50.7" y="16.4" fill="#B58436" width="10" height="10"/>
<rect x="62.7" y="28.4" fill="#B58436" width="6" height="6"/>
<rect x="60.7" y="42.4" fill="#B58436" width="8" height="8"/>
<rect x="60.7" y="52.4" fill="#B58436" width="6" height="6"/>
<rect x="62.7" y="20.4" fill="#B58436" width="6" height="6"/>
<rect x="70.7" y="26.4" fill="#B58436" width="8" height="8"/>
<rect x="68.7" y="12.4" fill="#B58436" width="6" height="6"/>
<rect x="80.7" y="2.4" fill="#B58436" width="4" height="4"/>
<rect x="76.7" y="16.4" fill="#B58436" width="4" height="4"/>
<rect x="62.7" y="14.4" fill="#B58436" width="4" height="4"/>
<rect x="76.7" y="22.4" fill="#B58436" width="2" height="2"/>
<rect x="74.7" y="36.4" fill="#B58436" width="2" height="2"/>
<rect x="76.7" y="12.4" fill="#B58436" width="2" height="2"/>
<rect x="64.7" y="10.4" fill="#B58436" width="2" height="2"/>
<rect x="62.7" y="36.4" fill="#B58436" width="4" height="4"/>
<rect x="70.7" y="2.4" fill="#B58436" width="8" height="8"/>
<rect x="56.7" y="10.4" fill="#B58436" width="4" height="4"/>
<rect x="44.7" y="22.4" fill="#B58436" width="4" height="4"/>
<rect x="70.7" y="20.4" fill="#B58436" width="4" height="4"/>
</svg>
