<?xml version="1.0" encoding="utf-8"?>
<!-- Generator: Adobe Illustrator 22.0.1, SVG Export Plug-In . SVG Version: 6.00 Build 0)  -->
<svg version="1.1" id="圖層_1" xmlns="http://www.w3.org/2000/svg" xmlns:xlink="http://www.w3.org/1999/xlink" x="0px" y="0px"
	 viewBox="0 0 32 32" enable-background="new 0 0 32 32" xml:space="preserve">
<path d="M30,0H2C0.9,0,0,0.9,0,2v28c0,1.1,0.9,2,2,2h13.1V21.5h-4.5v-6h4.5v-1.3c0-4.6,3-7.8,7.5-7.8
	c2.5,0,3.6,0.2,4.1,0.3l0.6,0.2l-0.1,5.5h-3.8c-0.1,0-1-0.1-1.6,0.5c-0.4,0.3-0.6,0.9-0.6,1.7v0.9h5.6l-0.8,6h-4.7V32H30
	c1.1,0,2-0.9,2-2V2C32,0.9,31.1,0,30,0z"/>
</svg>
