<?xml version="1.0" encoding="utf-8"?>
<!-- Generator: Adobe Illustrator 22.0.1, SVG Export Plug-In . SVG Version: 6.00 Build 0)  -->
<svg version="1.1" id="圖層_1" xmlns="http://www.w3.org/2000/svg" xmlns:xlink="http://www.w3.org/1999/xlink" x="0px" y="0px"
	 viewBox="0 0 32 32" enable-background="new 0 0 32 32" xml:space="preserve">
<g>
	<path d="M13.4,12c-0.3,0-0.5,0.3-0.5,0.6V17c0,0.3,0.2,0.5,0.6,0.5c0.3,0,0.5-0.2,0.5-0.5v-4.3C14,12.4,13.8,12,13.4,12z"/>
	<path d="M18.5,12.1c-0.3,0-0.5,0.2-0.5,0.5v2.7l-1.8-2.5c-0.3-0.4-0.6-0.7-1-0.7c-0.5,0-0.5,0.4-0.5,0.9v4c0,0.3,0.2,0.5,0.5,0.5
		c0.3,0,0.5-0.2,0.5-0.5v-2.8l1.8,2.5c0.4,0.5,0.5,0.8,1,0.8c0.4-0.1,0.5-0.4,0.5-1.1v-3.8C19.1,12.3,18.9,12.1,18.5,12.1z"/>
	<path d="M11.6,16.3h-1.4c-0.1,0-0.1-0.1-0.1-0.6v-3.1c0-0.3-0.2-0.6-0.5-0.6C9.2,12,9,12.3,9,12.6v3.8c0,0.9,0.4,1,0.9,1h1.8
		c0.3,0,0.5-0.3,0.5-0.6C12.2,16.6,12,16.3,11.6,16.3z"/>
	<path d="M22.6,16.2h-1.4c-0.1,0-0.2-0.1-0.2-0.2v-0.9h1.7c0.4,0,0.5-0.3,0.5-0.5c-0.1-0.2-0.3-0.4-0.6-0.4H21v-0.9
		c0-0.1,0.1-0.2,0.2-0.2h1.4c0.3,0,0.6-0.2,0.6-0.5c0-0.4-0.3-0.5-0.6-0.5h-1.8c-0.6,0-0.9,0.4-0.9,0.9v3.5c0,0.6,0.3,1,0.9,1h1.9
		c0.4,0,0.6-0.3,0.6-0.6C23.2,16.3,22.9,16.2,22.6,16.2z"/>
	<path d="M30,0H2C0.9,0,0,0.9,0,2v28c0,1.1,0.9,2,2,2h28c1.1,0,2-0.9,2-2V2C32,0.9,31.1,0,30,0z M23.7,20.5c-2.9,2.9-8,5.8-8.5,5.6
		c-0.9-0.3,0.6-2.2,0.1-3c-0.1-0.1-0.4-0.1-1.1-0.2c-5.1-0.6-8.8-4.1-8.8-8.4c0-4.9,4.7-8.6,10.6-8.6c6,0,10.7,3.8,10.7,8.6
		C26.7,16.8,25.5,18.9,23.7,20.5z"/>
</g>
</svg>
