<?xml version="1.0" encoding="utf-8"?>
<!-- Generator: Adobe Illustrator 22.0.1, SVG Export Plug-In . SVG Version: 6.00 Build 0)  -->
<svg version="1.1" id="圖層_1" xmlns="http://www.w3.org/2000/svg" xmlns:xlink="http://www.w3.org/1999/xlink" x="0px" y="0px"
	 viewBox="0 0 32 32" enable-background="new 0 0 32 32" xml:space="preserve">
<path d="M30,0H2C0.9,0,0,0.9,0,2v28c0,1.1,0.9,2,2,2h28c1.1,0,2-0.9,2-2V2C32,0.9,31.1,0,30,0z M9.2,28.4H4.1V11.9
	h5.2V28.4z M6.6,9.6c-1.8,0-3-1.4-3-3c0-1.8,1.4-3,3-3s3,1.4,3,3S8.2,9.6,6.6,9.6z M28.4,28.4L28.4,28.4l-5.2,0v-8
	c0-2,0-4.4-2.7-4.4s-3,2.1-3,4.3v8.2h-5.2V11.9h5v2.3c0.7-1.2,2.3-2.7,4.8-2.7c5.3,0,6.2,3.4,6.2,7.8V28.4L28.4,28.4L28.4,28.4z"/>
</svg>
