<svg xmlns="http://www.w3.org/2000/svg"><defs><symbol viewBox="0 0 32 32" id="fb"><path d="M30 0H2a2 2 0 0 0-2 2v28c0 1.1.9 2 2 2h13.1V21.5h-4.5v-6h4.5v-1.3c0-4.6 3-7.8 7.5-7.8 2.5 0 3.6.2 4.1.3l.6.2-.1 5.5h-3.8c-.1 0-1-.1-1.6.5-.4.3-.6.9-.6 1.7v.9h5.6l-.8 6h-4.7V32H30a2 2 0 0 0 2-2V2a2 2 0 0 0-2-2z" /></symbol><symbol viewBox="0 0 32 32" id="line"><path d="M13.4 12c-.3 0-.5.3-.5.6V17c0 .3.2.5.6.5.3 0 .5-.2.5-.5v-4.3c0-.3-.2-.7-.6-.7zm5.1.1c-.3 0-.5.2-.5.5v2.7l-1.8-2.5c-.3-.4-.6-.7-1-.7-.5 0-.5.4-.5.9v4c0 .3.2.5.5.5s.5-.2.5-.5v-2.8l1.8 2.5c.4.5.5.8 1 .8.4-.1.5-.4.5-1.1v-3.8c.1-.3-.1-.5-.5-.5zm-6.9 4.2h-1.4l-.1-.6v-3.1c0-.3-.2-.6-.5-.6-.4 0-.6.3-.6.6v3.8c0 .9.4 1 .9 1h1.8c.3 0 .5-.3.5-.6 0-.2-.2-.5-.6-.5zm11-.1h-1.4a.2.2 0 0 1-.2-.2v-.9h1.7c.4 0 .5-.3.5-.5a.7.7 0 0 0-.6-.4H21v-.9l.2-.2h1.4c.3 0 .6-.2.6-.5 0-.4-.3-.5-.6-.5h-1.8c-.6 0-.9.4-.9.9v3.5c0 .6.3 1 .9 1h1.9c.4 0 .6-.3.6-.6-.1-.6-.4-.7-.7-.7z" /><path d="M30 0H2a2 2 0 0 0-2 2v28c0 1.1.9 2 2 2h28a2 2 0 0 0 2-2V2a2 2 0 0 0-2-2zm-6.3 20.5c-2.9 2.9-8 5.8-8.5 5.6-.9-.3.6-2.2.1-3l-1.1-.2c-5.1-.6-8.8-4.1-8.8-8.4 0-4.9 4.7-8.6 10.6-8.6 6 0 10.7 3.8 10.7 8.6 0 2.3-1.2 4.4-3 6z" /></symbol><symbol viewBox="0 0 32 32" id="linkedin"><path d="M30 0H2a2 2 0 0 0-2 2v28c0 1.1.9 2 2 2h28a2 2 0 0 0 2-2V2a2 2 0 0 0-2-2zM9.2 28.4H4.1V11.9h5.2v16.5zM6.6 9.6a3 3 0 0 1-3-3c0-1.8 1.4-3 3-3s3 1.4 3 3-1.4 3-3 3zm21.8 18.8h-5.2v-8c0-2 0-4.4-2.7-4.4s-3 2.1-3 4.3v8.2h-5.2V11.9h5v2.3a5.5 5.5 0 0 1 4.8-2.7c5.3 0 6.2 3.4 6.2 7.8v9.1h.1z" /></symbol></defs></svg>